<?xml version="1.0"?>
<svg fill="#fff" xmlns="http://www.w3.org/2000/svg" width="512" height="512" viewBox="0 0 128 128"><g><path
        d="M111.441,72.009l-.6-1.363a6.124,6.124,0,0,0-7.5-3.39c-.182.058-.389.121-.582.182V53.25h4.36a1.75,1.75,0,0,0,1.75-1.75V11a1.75,1.75,0,0,0-1.75-1.75h-4.36V1.833a1.751,1.751,0,0,0-1.75-1.75H90.833a1.75,1.75,0,0,0-1.75,1.75V9.25H38.917V1.833a1.751,1.751,0,0,0-1.75-1.75H26.986a1.751,1.751,0,0,0-1.75,1.75V9.25H23.875A4.756,4.756,0,0,0,19.125,14V48.5a4.756,4.756,0,0,0,4.75,4.75h1.361V67.438c-.193-.06-.4-.123-.582-.182a6.124,6.124,0,0,0-7.5,3.39l-.6,1.362a6.145,6.145,0,0,0,3.716,8.314c.751.245,1.612.51,2.54.783l28.661,18.976L28.333,115.4a6.915,6.915,0,0,0,7.635,11.531L64,108.373l28.033,18.561A6.914,6.914,0,0,0,99.666,115.4h0L76.524,100.081l28.659-18.975c.929-.274,1.79-.539,2.541-.784a6.144,6.144,0,0,0,3.717-8.313ZM99.2,120.488a3.415,3.415,0,0,1-5.23,3.528L67.17,106.275l6.184-4.095,24.38,16.141h0A3.387,3.387,0,0,1,99.2,120.488Zm.07-52.034c-2.117.567-4.354,1.09-6.682,1.561V53.25h6.682ZM92.583,3.583h6.682V9.25H92.583Zm-63.847,0h6.681V9.25H28.736ZM22.625,48.5V14a1.252,1.252,0,0,1,1.25-1.25h81.5v37h-81.5A1.252,1.252,0,0,1,22.625,48.5Zm12.792,4.75V70.015c-2.329-.471-4.565-.994-6.681-1.561V53.25Zm3.5,0H89.083V70.677A147.073,147.073,0,0,1,64,72.75a147.054,147.054,0,0,1-25.083-2.073ZM32.876,83.568a149.51,149.51,0,0,0,15.8,2.269l12.158,8.05-6.185,4.095ZM64,91.789l-8.263-5.471c2.641.125,5.39.2,8.263.2s5.623-.074,8.263-.2Zm31.124-8.221L34.036,124.016a3.415,3.415,0,0,1-3.77-5.7L79.328,85.837A151.117,151.117,0,0,0,95.124,83.568Zm13.1-8A2.611,2.611,0,0,1,106.639,77C94.074,81.06,78.716,83.025,64,83.017c-15.365-.193-27.486-1.393-42.64-6.023a2.716,2.716,0,0,1-1.6-3.58l.6-1.362a2.64,2.64,0,0,1,2.415-1.591C34.809,73.762,44.893,76.093,64,76.25c18.785-.249,28.608-2.192,40.419-5.662a2.632,2.632,0,0,1,3.221,1.463l.6,1.363A2.625,2.625,0,0,1,108.228,75.566Z"/><path d="M54.109,35.823l-.228,8.257c.172.648.315,2.066,2.336,1.7L64,43.01l7.783,2.767a1.809,1.809,0,0,0,2.335-1.7l-.226-8.257,5.036-6.546a1.81,1.81,0,0,0-.892-2.746L70.113,24.2l-4.67-6.814a1.815,1.815,0,0,0-2.886,0L57.887,24.2l-7.923,2.335a1.81,1.81,0,0,0-.892,2.746Zm5.365-8.446a1.754,1.754,0,0,0,.948-.689L64,21.467l3.578,5.221a1.754,1.754,0,0,0,.948.689l6.071,1.79-3.859,5.016a1.739,1.739,0,0,0-.362,1.115l.174,6.326L64.586,39.5a1.75,1.75,0,0,0-1.172,0l-5.963,2.121.174-6.326a1.75,1.75,0,0,0-.363-1.116L53.4,29.167Z"/></g></svg>
